<?xml version="1.0" encoding="UTF-8"?>
<svg id="Layer_1" data-name="Layer 1" xmlns="http://www.w3.org/2000/svg" viewBox="0 0 308 72">
  <defs>
    <style>
      .cls-1, .cls-2, .cls-3, .cls-4, .cls-5, .cls-6 {
        stroke-miterlimit: 10;
      }

      .cls-1, .cls-2, .cls-3, .cls-4, .cls-6 {
        fill: none;
        stroke-width: .42px;
      }

      .cls-1, .cls-2, .cls-4, .cls-5 {
        stroke: #040c75;
      }

      .cls-7, .cls-5 {
        fill: #040c75;
      }

      .cls-2 {
        stroke-dasharray: 0 0 1.47 1.47;
      }

      .cls-3, .cls-6 {
        stroke: red;
      }

      .cls-8 {
        fill: #dd1717;
      }

      .cls-4 {
        stroke-dasharray: 0 0 1.46 1.46;
      }

      .cls-5 {
        stroke-width: .34px;
      }

      .cls-6 {
        stroke-dasharray: 0 0 1.47 1.47;
      }
    </style>
  </defs>
  <g>
    <g>
      <path class="cls-3" d="m44.55,60.43c-.25-.01-.49-.03-.73-.05"/>
      <path class="cls-6" d="m42.35,60.21c-7.43-1.1-14.14-5.91-17.32-13.32-4.88-11.37.37-24.54,11.74-29.42,11.37-4.88,24.54.37,29.42,11.74,4.88,11.37-.37,24.54-11.74,29.42-2.08.9-4.23,1.45-6.38,1.69"/>
      <path class="cls-3" d="m47.34,60.39c-.25.02-.49.03-.74.04"/>
    </g>
    <g>
      <path class="cls-1" d="m44.16,50.83c-.25-.03-.49-.06-.73-.1"/>
      <path class="cls-2" d="m41.99,50.39c-5.34-1.57-9.24-6.51-9.24-12.34,0-4.31,2.13-8.14,5.4-10.47"/>
      <path class="cls-1" d="m38.75,27.17c.21-.13.42-.26.64-.38"/>
    </g>
    <g>
      <path class="cls-1" d="m52,26.89c.21.12.43.25.63.39"/>
      <path class="cls-4" d="m53.81,28.14c2.85,2.36,4.67,5.93,4.67,9.91,0,6.04-4.19,11.13-9.82,12.5"/>
      <path class="cls-1" d="m47.94,50.7c-.24.04-.49.08-.73.11"/>
    </g>
    <polygon class="cls-8" points="46.31 5.96 46.31 8.48 45.09 5.96 44.29 5.96 44.29 9.4 44.91 9.4 44.91 6.92 46.13 9.4 46.93 9.4 46.93 5.96 46.31 5.96"/>
    <path class="cls-8" d="m48.28,47.05c-.23.1-.48.15-.74.15-1.06,0-2.32-.87-2.32-1.93v-.65c-.16,0,.08,0-.07,0-1.1-.06-2.17-.33-3.16-.8v2.05c-.02,1.16,1.34,3,2.21,4.24,1.12,1.59.78,10.72.78,10.72h0c0,.34.28.62.62.62s.62-.28.62-.62c0,0,0,0,0,0,0-.22-.32-9.14.78-10.71.52-.74,1.22-1.7,1.69-2.6.15-.28-.14-.58-.43-.45Z"/>
    <path class="cls-8" d="m50.01,19.69v19.21c0,1.46-.82,2.73-2.03,3.37-.72.28-1.5.43-2.31.44h-.12c-.81,0-1.59-.16-2.31-.44-1.21-.64-2.03-1.91-2.03-3.37v-19.21l-3.23,3.35v13.1c0,2.57,1.28,4.85,3.23,6.23,1.24.88,2.76,1.39,4.4,1.39h0s0,0,0,0h0c1.64,0,3.15-.52,4.4-1.39,1.95-1.38,3.23-3.66,3.23-6.23v-13.1l-3.23-3.35Z"/>
    <path class="cls-8" d="m19.17,38.75l.58-2.01h.46l.58,2.01.39-2.01h.58l-.69,3.01h-.53l-.53-2.1-.56,2.1h-.53l-.69-3.01h.58l.39,2.01Z"/>
    <path class="cls-8" d="m45.6,66.04c-.16,0-.32-.02-.48-.05-.16-.03-.3-.08-.44-.15-.14-.06-.26-.14-.37-.23l.3-.53c.13.11.29.19.46.25.17.06.35.09.53.09.21,0,.38-.04.49-.11s.18-.17.18-.3h0c0-.1-.03-.18-.09-.23-.06-.05-.14-.09-.23-.12s-.2-.05-.31-.06c-.13-.02-.27-.05-.41-.08-.14-.03-.26-.08-.38-.15-.12-.07-.21-.16-.28-.29-.07-.12-.11-.29-.11-.5h0c0-.34.11-.6.33-.78.22-.18.53-.28.94-.28.19,0,.38.03.57.09s.37.15.54.27l-.27.55c-.13-.09-.27-.16-.42-.21-.14-.05-.28-.07-.42-.07-.2,0-.35.03-.46.1s-.16.16-.16.28h0c0,.11.03.2.1.25.06.06.15.1.25.13.1.03.22.05.34.08.13.03.26.06.4.09.13.04.25.09.36.16.11.07.2.16.26.29.06.12.1.28.1.47h0c0,.34-.11.59-.34.78-.23.18-.55.27-.97.27Z"/>
    <polygon class="cls-8" points="72.09 37.29 72.09 36.74 70.07 36.74 70.07 39.75 72.09 39.75 72.09 39.21 70.64 39.21 70.64 38.53 71.86 38.53 71.86 37.98 70.64 37.98 70.64 37.29 72.09 37.29"/>
    <path class="cls-5" d="m47.66,63.65l-.02-.21c5.97-.48,11.6-3.06,15.86-7.27,4.26-4.21,6.91-9.81,7.47-15.77l.21.02c-.56,6.01-3.23,11.66-7.53,15.9-4.3,4.24-9.98,6.84-15.99,7.33Z"/>
    <path class="cls-5" d="m71,36.01c-.48-5.97-3.06-11.6-7.27-15.86-4.21-4.26-9.81-6.91-15.77-7.47l.02-.21c6.01.56,11.66,3.23,15.9,7.53,4.24,4.3,6.84,9.98,7.33,15.99l-.21.02Z"/>
    <path class="cls-5" d="m20.25,35.69l-.21-.02c.56-6.01,3.23-11.66,7.53-15.9,4.3-4.24,9.98-6.84,15.99-7.33l.02.21c-5.97.48-11.6,3.06-15.86,7.27-4.26,4.21-6.91,9.81-7.46,15.77Z"/>
    <path class="cls-5" d="m43.24,63.62c-6.01-.56-11.66-3.23-15.9-7.53-4.24-4.3-6.84-9.98-7.33-15.99l.21-.02c.48,5.97,3.06,11.6,7.27,15.86,4.21,4.26,9.81,6.91,15.77,7.47l-.02.21Z"/>
    <path class="cls-7" d="m13.31,38.22l3.33.48v-1.3l-3.33.48c-.2.03-.2.31,0,.34Z"/>
    <path class="cls-7" d="m76.98,37.88l-3.33-.48v1.3l3.33-.48c.2-.03.2-.31,0-.34Z"/>
    <path class="cls-7" d="m63.9,37.88l3.33-.48v1.3s-3.33-.48-3.33-.48c-.2-.03-.2-.31,0-.34Z"/>
    <path class="cls-7" d="m27.67,37.88l-3.33-.48v1.3l3.33-.48c.2-.03.2-.31,0-.34Z"/>
    <path class="cls-7" d="m45.44,1.07l-.48,3.33h1.3s-.48-3.33-.48-3.33c-.03-.2-.31-.2-.34,0Z"/>
    <path class="cls-7" d="m45.78,70.93l.48-3.33h-1.3l.48,3.33c.03.2.31.2.34,0Z"/>
    <path class="cls-7" d="m49.21,17.93s.02.03.02.05v17.19c0,1.73-1.39,4.42-3.12,4.46h0s-.03,0-.03,0h-.08v-21.52c0-.22-.18-.39-.39-.39h0c-.21,0-.39.17-.39.39v23.73c-1.78,0-3.23-1.45-3.23-3.23v-20.72c-.02-1.16.32-1.98,1.41-3.03,1.3-1.24,1.59-3.68,1.59-3.68h0s0-.04,0-.06c0-.34.28-.62.62-.62s.62.28.62.62c0,.02,0,.04,0,.06h0s.29,2.44,1.59,3.68c1.09,1.05,1.43,1.87,1.41,3.03l-.02.03Z"/>
  </g>
  <g>
    <path class="cls-7" d="m112.23,22.15c-.6-1.18-1.46-2.08-2.59-2.7-1.13-.62-2.49-.94-4.1-.94h-10.6v6.95h3.74v-3.46h7.04c1.18,0,2.09.38,2.71,1.15.63.77.95,1.88.95,3.31v7.35c0,1.37-.32,2.44-.96,3.2-.64.77-1.54,1.15-2.7,1.15h-7.04v-9.98h-3.74v28.12h3.74v-14.65h6.86c1.59,0,2.96-.31,4.09-.91,1.13-.6,2-1.49,2.6-2.65s.9-2.56.9-4.21v-7.41c0-1.7-.3-3.13-.9-4.31Z"/>
    <path class="cls-7" d="m139.54,22.47c-.74-1.41-1.8-2.49-3.2-3.24-1.39-.74-3.09-1.12-5.08-1.12s-3.66.38-5.07,1.12c-1.4.75-2.47,1.83-3.21,3.24-.46.88-.77,1.87-.95,2.99h3.83c.23-.88.64-1.6,1.23-2.19.99-.99,2.37-1.48,4.16-1.48s3.19.49,4.17,1.48c.98.99,1.47,2.38,1.47,4.19v19.91c0,1.78-.49,3.17-1.47,4.17-.98.99-2.37,1.49-4.17,1.49s-3.17-.5-4.16-1.49c-.99-1-1.48-2.39-1.48-4.17v-19.18h-3.74v18.99c0,2.03.37,3.75,1.11,5.16.74,1.41,1.8,2.49,3.21,3.24s3.09,1.12,5.07,1.12,3.69-.37,5.08-1.12c1.39-.75,2.46-1.82,3.2-3.24.74-1.41,1.11-3.13,1.11-5.16v-19.54c0-2.03-.37-3.75-1.11-5.16Z"/>
    <path class="cls-7" d="m163.45,39.36c.07-.03.14-.06.2-.09,1.39-.69,2.46-1.7,3.2-3.01.74-1.32,1.11-2.91,1.11-4.79v-4.41c0-1.82-.37-3.37-1.11-4.65s-1.8-2.26-3.2-2.92c-1.39-.67-3.09-1-5.08-1h-9.04v6.97h3.74v-3.49h5.56c1.7,0,3.02.49,3.96,1.47s1.42,2.36,1.42,4.14v3.9c0,1.7-.47,3.02-1.42,3.95-.95.94-2.27,1.4-3.96,1.4h-5.56v-8.65h-3.74v28.12h3.74v-15.98h5.3c.49,0,.96-.02,1.42-.06l4.69,16.04h4.34l-5.56-16.93Z"/>
    <rect class="cls-7" x="182.47" y="28.18" width="3.74" height="28.12"/>
    <polygon class="cls-7" points="193.51 18.51 193.51 21.99 186.21 21.99 186.21 25.46 182.47 25.46 182.47 21.99 175.17 21.99 175.17 18.51 193.51 18.51"/>
    <rect class="cls-7" x="213.52" y="18.51" width="3.74" height="6.95"/>
    <path class="cls-7" d="m213.52,28.18h3.74v19.65c0,2.96-.72,5.18-2.14,6.65-1.43,1.47-3.59,2.21-6.49,2.21s-5.02-.74-6.44-2.21c-1.42-1.47-2.13-3.69-2.13-6.65v-29.31h3.74v29.5c0,1.68.4,2.94,1.21,3.77.8.83,2.02,1.24,3.63,1.24s2.87-.41,3.68-1.24c.8-.83,1.21-2.09,1.21-3.77v-19.83Z"/>
    <rect class="cls-7" x="225.88" y="28.18" width="3.69" height="28.09"/>
    <polygon class="cls-7" points="244.44 18.51 244.44 56.27 240.88 56.27 230.18 28.44 229.58 26.87 229.56 26.82 229.56 25.46 225.88 25.46 225.88 18.51 229.39 18.51 240.75 47.92 240.75 18.51 244.44 18.51"/>
    <rect class="cls-7" x="254.39" y="18.51" width="3.74" height="37.79"/>
    <rect class="cls-7" x="274.86" y="28.18" width="3.74" height="28.12"/>
    <polygon class="cls-7" points="285.91 18.51 285.91 21.99 278.6 21.99 278.6 25.46 274.86 25.46 274.86 21.99 267.56 21.99 267.56 18.51 285.91 18.51"/>
  </g>
</svg>