<?xml version="1.0" encoding="UTF-8"?>
<svg id="Layer_1" data-name="Layer 1" xmlns="http://www.w3.org/2000/svg" viewBox="0 0 308 72">
  <defs>
    <style>
      .cls-1 {
        fill: #fff;
      }
    </style>
  </defs>
  <g>
    <g>
      <path class="cls-1" d="m44.54,60.64c-.25-.01-.5-.03-.74-.05l.03-.42c.24.02.49.04.73.05l-.02.42Z"/>
      <path class="cls-1" d="m48.91,60.42l-.06-.42c.48-.07.97-.16,1.44-.26l.09.41c-.48.1-.97.19-1.46.27Zm-6.59,0c-.49-.07-.98-.16-1.46-.27l.09-.41c.47.1.96.19,1.44.26l-.06.42Zm-2.91-.63c-.47-.14-.95-.29-1.42-.46l.14-.4c.46.16.92.31,1.39.45l-.12.41Zm12.41,0l-.12-.41c.47-.13.93-.29,1.39-.45l.14.4c-.46.17-.94.32-1.42.46Zm-15.21-1c-.45-.19-.9-.41-1.35-.64l.19-.38c.44.22.88.43,1.32.62l-.17.39Zm18.01,0l-.17-.39c.45-.19.89-.41,1.32-.63l.19.38c-.44.22-.89.44-1.34.64Zm-20.66-1.36c-.42-.25-.84-.53-1.25-.81l.24-.35c.4.28.81.54,1.23.79l-.22.36Zm23.3,0l-.22-.36c.42-.25.83-.52,1.23-.79l.24.35c-.4.28-.82.55-1.25.81Zm-25.75-1.69c-.39-.31-.77-.64-1.13-.96l.29-.31c.35.32.73.64,1.11.95l-.26.33Zm28.19,0l-.26-.33c.38-.3.75-.62,1.11-.95l.29.31c-.37.33-.75.66-1.13.96Zm-30.39-2c-.34-.36-.68-.73-1-1.11l.32-.27c.31.37.64.74.98,1.08l-.3.29Zm32.59,0l-.3-.29c.34-.35.67-.71.98-1.08l.32.27c-.32.38-.65.75-1,1.11Zm-34.51-2.27c-.3-.4-.58-.82-.84-1.23l.36-.23c.26.4.53.81.83,1.2l-.34.25Zm36.42,0l-.34-.25c.29-.39.57-.8.83-1.2l.36.23c-.26.42-.55.83-.84,1.23Zm-38.02-2.5c-.24-.43-.46-.88-.67-1.33l.38-.18c.21.44.43.88.66,1.3l-.37.2Zm39.62,0l-.37-.2c.23-.43.46-.87.66-1.3l.38.18c-.21.44-.43.89-.67,1.33Zm-40.88-2.69c-.18-.47-.35-.94-.5-1.4l.4-.13c.14.46.31.92.49,1.38l-.39.15Zm42.14,0l-.39-.15c.17-.45.34-.91.49-1.38l.4.13c-.15.48-.32.95-.5,1.4Zm-43.04-2.83c-.12-.49-.22-.98-.31-1.46l.42-.07c.08.47.18.95.3,1.43l-.41.1Zm43.93,0l-.41-.1c.12-.47.22-.95.3-1.43l.42.07c-.09.49-.19.98-.31,1.46Zm-44.45-2.92c-.05-.5-.09-1-.11-1.48l.42-.02c.02.48.06.97.11,1.46l-.42.05Zm44.97,0l-.42-.05c.05-.48.09-.97.11-1.46l.42.02c-.02.5-.06,1-.11,1.48Zm-44.67-2.96h-.42c.01-.51.04-1.01.09-1.5l.42.04c-.04.48-.07.97-.08,1.46Zm44.37,0c-.01-.49-.04-.98-.08-1.46l.42-.04c.04.49.07.99.08,1.49h-.42Zm-44.11-2.9l-.42-.07c.08-.48.17-.98.28-1.46l.41.09c-.11.48-.2.96-.28,1.43Zm43.85,0c-.07-.47-.17-.96-.28-1.43l.41-.09c.11.49.21.98.28,1.46l-.42.07Zm-43.21-2.84l-.41-.12c.14-.47.3-.94.47-1.41l.4.15c-.17.46-.32.93-.46,1.39Zm42.56,0c-.14-.46-.29-.93-.46-1.39l.4-.15c.17.47.33.94.47,1.41l-.41.12Zm-41.55-2.73l-.39-.17c.2-.44.41-.89.65-1.34l.38.2c-.23.44-.44.88-.64,1.31Zm40.54,0c-.2-.44-.41-.88-.64-1.31l.38-.2c.23.44.45.89.65,1.34l-.39.17Zm-39.18-2.58l-.36-.22c.26-.42.54-.84.82-1.24l.35.25c-.28.39-.55.8-.8,1.22Zm37.82,0c-.25-.41-.52-.82-.8-1.22l.35-.24c.29.4.56.82.82,1.24l-.36.22Zm-36.14-2.38l-.33-.27c.31-.38.64-.76.98-1.12l.31.29c-.33.35-.65.73-.96,1.1Zm34.45,0c-.3-.38-.63-.75-.96-1.1l.31-.29c.34.36.66.74.98,1.12l-.33.27Zm-32.47-2.13l-.29-.31c.36-.34.74-.67,1.12-.99l.27.33c-.37.31-.74.63-1.09.97Zm30.48,0c-.35-.33-.72-.66-1.09-.97l.27-.33c.38.31.75.65,1.12.98l-.29.31Zm-28.24-1.86l-.25-.34c.4-.29.82-.57,1.24-.83l.22.36c-.41.26-.82.53-1.21.81Zm25.99,0c-.39-.28-.8-.56-1.21-.81l.22-.36c.42.26.84.54,1.24.83l-.25.34Zm-23.51-1.54l-.2-.37c.43-.23.88-.45,1.33-.66l.18.39c-.45.2-.89.42-1.31.65Zm21.03,0c-.43-.23-.87-.45-1.31-.65l.18-.39c.45.2.9.43,1.33.66l-.2.37Zm-18.38-1.21l-.15-.4c.47-.18.94-.34,1.41-.48l.12.41c-.46.14-.92.3-1.38.47Zm15.72,0c-.45-.17-.92-.33-1.38-.47l.12-.41c.47.14.95.31,1.41.48l-.15.4Zm-2.79-.85c-.48-.11-.96-.21-1.43-.29l.07-.42c.48.08.97.18,1.46.29l-.1.41Zm-10.14,0l-.1-.41c.48-.11.97-.21,1.46-.29l.07.42c-.48.08-.96.18-1.43.29Zm7.26-.48c-.48-.05-.97-.08-1.46-.1v-.42c.51.02,1.01.05,1.5.1l-.04.42Zm-4.38,0l-.04-.42c.49-.05.99-.08,1.48-.1v.42c-.47.02-.96.05-1.44.1Z"/>
      <path class="cls-1" d="m46.61,60.64l-.02-.42c.24-.01.49-.03.73-.04l.03.42c-.25.02-.5.03-.75.05Z"/>
    </g>
    <g>
      <path class="cls-1" d="m44.14,51.04c-.25-.03-.5-.06-.75-.11l.07-.42c.24.04.48.08.72.1l-.05.42Z"/>
      <path class="cls-1" d="m41.93,50.6c-.48-.14-.95-.31-1.41-.5l.17-.39c.44.19.9.35,1.36.49l-.12.41Zm-2.75-1.17c-.43-.25-.86-.52-1.26-.81l.25-.34c.39.28.8.55,1.22.79l-.21.37Zm-2.42-1.76c-.37-.34-.72-.7-1.04-1.07l.32-.28c.31.36.65.71,1.01,1.04l-.29.31Zm-1.96-2.26c-.28-.41-.54-.84-.77-1.28l.38-.2c.22.42.47.84.75,1.24l-.35.24Zm-1.39-2.64c-.18-.47-.33-.94-.46-1.43l.41-.11c.12.46.27.93.44,1.38l-.39.15Zm-.75-2.89c-.07-.5-.11-1-.12-1.49h.42c.01.47.05.95.12,1.43l-.42.06Zm.35-2.95l-.42-.04c.04-.49.12-.99.22-1.48l.42.08c-.1.48-.17.96-.21,1.43Zm.59-2.83l-.4-.13c.16-.47.34-.94.55-1.39l.38.18c-.2.44-.38.89-.53,1.35Zm1.22-2.62l-.36-.22c.26-.43.55-.84.85-1.23l.33.26c-.3.38-.57.78-.83,1.19Zm1.78-2.28l-.3-.3c.35-.35.72-.69,1.11-1.01l.27.33c-.37.3-.74.63-1.07.97Z"/>
      <path class="cls-1" d="m38.86,27.35l-.23-.36c.21-.13.43-.26.65-.38l.21.37c-.21.12-.42.24-.63.37Z"/>
    </g>
    <g>
      <path class="cls-1" d="m52.52,27.45c-.2-.13-.41-.26-.62-.38l.21-.37c.22.12.43.26.64.39l-.23.35Z"/>
      <path class="cls-1" d="m49.44,50.55l-.12-.41c.46-.14.91-.31,1.34-.5l.17.39c-.45.2-.92.37-1.39.51Zm2.71-1.18l-.21-.37c.41-.24.81-.5,1.2-.79l.25.34c-.4.29-.81.57-1.24.81Zm2.37-1.76l-.29-.31c.35-.33.68-.68.99-1.03l.32.28c-.32.37-.66.73-1.02,1.07Zm1.92-2.25l-.35-.24c.27-.4.52-.81.74-1.23l.38.2c-.23.43-.48.86-.76,1.27Zm1.37-2.62l-.4-.15c.17-.45.32-.91.44-1.37l.41.11c-.12.47-.28.95-.45,1.41Zm.74-2.86l-.42-.06c.07-.47.11-.95.12-1.43h.42c-.01.5-.05,1-.12,1.49Zm-.34-2.92c-.04-.47-.11-.95-.2-1.42l.42-.08c.1.48.17.98.21,1.47l-.42.04Zm-.57-2.8c-.15-.45-.32-.9-.52-1.34l.39-.18c.21.45.39.92.54,1.38l-.4.13Zm-1.19-2.6c-.25-.41-.52-.81-.81-1.18l.34-.26c.3.39.58.8.83,1.22l-.36.22Zm-1.74-2.27c-.33-.34-.68-.67-1.05-.98l.27-.33c.38.31.74.65,1.08,1.01l-.3.29Z"/>
      <path class="cls-1" d="m47.24,51.02l-.05-.42c.24-.03.48-.07.72-.11l.08.42c-.25.04-.49.08-.75.11Z"/>
    </g>
    <polygon class="cls-1" points="46.31 5.96 46.31 8.48 45.09 5.96 44.29 5.96 44.29 9.4 44.91 9.4 44.91 6.92 46.13 9.4 46.93 9.4 46.93 5.96 46.31 5.96"/>
    <path class="cls-1" d="m48.28,47.05c-.23.1-.48.15-.74.15-1.06,0-2.32-.87-2.32-1.93v-.65c-.16,0,.08,0-.07,0-1.1-.06-2.17-.33-3.16-.8v2.05c-.02,1.16,1.34,3,2.21,4.24,1.12,1.59.78,10.72.78,10.72h0c0,.34.28.62.62.62s.62-.28.62-.62c0,0,0,0,0,0,0-.22-.32-9.14.78-10.71.52-.74,1.22-1.7,1.69-2.6.15-.28-.14-.58-.43-.45Z"/>
    <path class="cls-1" d="m50.01,19.69v19.21c0,1.46-.82,2.73-2.03,3.37-.72.28-1.5.43-2.31.44h-.12c-.81,0-1.59-.16-2.31-.44-1.21-.64-2.03-1.91-2.03-3.37v-19.21l-3.23,3.35v13.1c0,2.57,1.28,4.85,3.23,6.23,1.24.88,2.76,1.39,4.4,1.39h0s0,0,0,0h0c1.64,0,3.15-.52,4.4-1.39,1.95-1.38,3.23-3.66,3.23-6.23v-13.1l-3.23-3.35Z"/>
    <path class="cls-1" d="m19.17,38.75l.58-2.01h.46l.58,2.01.39-2.01h.58l-.69,3.01h-.53l-.53-2.1-.56,2.1h-.53l-.69-3.01h.58l.39,2.01Z"/>
    <path class="cls-1" d="m45.6,66.04c-.16,0-.32-.02-.48-.05-.16-.03-.3-.08-.44-.15-.14-.06-.26-.14-.37-.23l.3-.53c.13.11.29.19.46.25.17.06.35.09.53.09.21,0,.38-.04.49-.11s.18-.17.18-.3h0c0-.1-.03-.18-.09-.23-.06-.05-.14-.09-.23-.12s-.2-.05-.31-.06c-.13-.02-.27-.05-.41-.08-.14-.03-.26-.08-.38-.15-.12-.07-.21-.16-.28-.29-.07-.12-.11-.29-.11-.5h0c0-.34.11-.6.33-.78.22-.18.53-.28.94-.28.19,0,.38.03.57.09s.37.15.54.27l-.27.55c-.13-.09-.27-.16-.42-.21-.14-.05-.28-.07-.42-.07-.2,0-.35.03-.46.1s-.16.16-.16.28h0c0,.11.03.2.1.25.06.06.15.1.25.13.1.03.22.05.34.08.13.03.26.06.4.09.13.04.25.09.36.16.11.07.2.16.26.29.06.12.1.28.1.47h0c0,.34-.11.59-.34.78-.23.18-.55.27-.97.27Z"/>
    <polygon class="cls-1" points="72.09 37.29 72.09 36.74 70.07 36.74 70.07 39.75 72.09 39.75 72.09 39.21 70.64 39.21 70.64 38.53 71.86 38.53 71.86 37.98 70.64 37.98 70.64 37.29 72.09 37.29"/>
    <g>
      <path class="cls-1" d="m47.66,63.65l-.02-.21c5.97-.48,11.6-3.06,15.86-7.27,4.26-4.21,6.91-9.81,7.47-15.77l.21.02c-.56,6.01-3.23,11.66-7.53,15.9-4.3,4.24-9.98,6.84-15.99,7.33Z"/>
      <path class="cls-1" d="m47.51,63.83l-.04-.55h.17c5.93-.49,11.53-3.05,15.76-7.23,4.23-4.18,6.87-9.74,7.42-15.67l.02-.17.54.05-.02.17c-.56,6.05-3.25,11.73-7.58,16-4.33,4.27-10.04,6.89-16.1,7.37h-.17Z"/>
    </g>
    <g>
      <path class="cls-1" d="m71,36.01c-.48-5.97-3.06-11.6-7.27-15.86-4.21-4.26-9.81-6.91-15.77-7.47l.02-.21c6.01.56,11.66,3.23,15.9,7.53,4.24,4.3,6.84,9.98,7.33,15.99l-.21.02Z"/>
      <path class="cls-1" d="m70.85,36.19v-.17c-.49-5.93-3.05-11.52-7.23-15.76-4.18-4.23-9.74-6.87-15.67-7.42l-.17-.02.05-.54.17.02c6.05.56,11.73,3.25,16,7.58,4.27,4.32,6.89,10.04,7.37,16.1v.17s-.53.04-.53.04Z"/>
    </g>
    <g>
      <path class="cls-1" d="m20.25,35.69l-.21-.02c.56-6.01,3.23-11.66,7.53-15.9,4.3-4.24,9.98-6.84,15.99-7.33l.02.21c-5.97.48-11.6,3.06-15.86,7.27-4.26,4.21-6.91,9.81-7.46,15.77Z"/>
      <path class="cls-1" d="m20.4,35.88l-.54-.05.02-.17c.56-6.05,3.25-11.73,7.58-16,4.32-4.27,10.04-6.89,16.1-7.38h.17s.04.53.04.53h-.17c-5.93.49-11.53,3.05-15.76,7.23s-6.87,9.74-7.42,15.67l-.02.17Z"/>
    </g>
    <g>
      <path class="cls-1" d="m43.24,63.62c-6.01-.56-11.66-3.23-15.9-7.53-4.24-4.3-6.84-9.98-7.33-15.99l.21-.02c.48,5.97,3.06,11.6,7.27,15.86,4.21,4.26,9.81,6.91,15.77,7.47l-.02.21Z"/>
      <path class="cls-1" d="m43.39,63.81l-.17-.02c-6.05-.56-11.74-3.25-16-7.58-4.27-4.32-6.89-10.04-7.37-16.1v-.17s.53-.04.53-.04v.17c.49,5.93,3.05,11.53,7.23,15.76,4.18,4.23,9.74,6.87,15.67,7.42l.17.02-.05.54Z"/>
    </g>
    <path class="cls-1" d="m13.31,38.22l3.33.48v-1.3l-3.33.48c-.2.03-.2.31,0,.34Z"/>
    <path class="cls-1" d="m76.98,37.88l-3.33-.48v1.3l3.33-.48c.2-.03.2-.31,0-.34Z"/>
    <path class="cls-1" d="m63.9,37.88l3.33-.48v1.3s-3.33-.48-3.33-.48c-.2-.03-.2-.31,0-.34Z"/>
    <path class="cls-1" d="m27.67,37.88l-3.33-.48v1.3l3.33-.48c.2-.03.2-.31,0-.34Z"/>
    <path class="cls-1" d="m45.44,1.07l-.48,3.33h1.3s-.48-3.33-.48-3.33c-.03-.2-.31-.2-.34,0Z"/>
    <path class="cls-1" d="m45.78,70.93l.48-3.33h-1.3l.48,3.33c.03.2.31.2.34,0Z"/>
    <path class="cls-1" d="m49.21,17.93s.02.03.02.05v17.19c0,1.73-1.39,4.42-3.12,4.46h0s-.03,0-.03,0h-.08v-21.52c0-.22-.18-.39-.39-.39h0c-.21,0-.39.17-.39.39v23.73c-1.78,0-3.23-1.45-3.23-3.23v-20.72c-.02-1.16.32-1.98,1.41-3.03,1.3-1.24,1.59-3.68,1.59-3.68h0s0-.04,0-.06c0-.34.28-.62.62-.62s.62.28.62.62c0,.02,0,.04,0,.06h0s.29,2.44,1.59,3.68c1.09,1.05,1.43,1.87,1.41,3.03l-.02.03Z"/>
  </g>
  <g>
    <path class="cls-1" d="m112.23,22.15c-.6-1.18-1.46-2.08-2.59-2.7-1.13-.62-2.49-.94-4.1-.94h-10.6v6.95h3.74v-3.46h7.04c1.18,0,2.09.38,2.71,1.15.63.77.95,1.88.95,3.31v7.35c0,1.37-.32,2.44-.96,3.2-.64.77-1.54,1.15-2.7,1.15h-7.04v-9.98h-3.74v28.12h3.74v-14.65h6.86c1.59,0,2.96-.31,4.09-.91,1.13-.6,2-1.49,2.6-2.65s.9-2.56.9-4.21v-7.41c0-1.7-.3-3.13-.9-4.31Z"/>
    <path class="cls-1" d="m139.54,22.47c-.74-1.41-1.8-2.49-3.2-3.24-1.39-.74-3.09-1.12-5.08-1.12s-3.66.38-5.07,1.12c-1.4.75-2.47,1.83-3.21,3.24-.46.88-.77,1.87-.95,2.99h3.83c.23-.88.64-1.6,1.23-2.19.99-.99,2.37-1.48,4.16-1.48s3.19.49,4.17,1.48c.98.99,1.47,2.38,1.47,4.19v19.91c0,1.78-.49,3.17-1.47,4.17-.98.99-2.37,1.49-4.17,1.49s-3.17-.5-4.16-1.49c-.99-1-1.48-2.39-1.48-4.17v-19.18h-3.74v18.99c0,2.03.37,3.75,1.11,5.16.74,1.41,1.8,2.49,3.21,3.24s3.09,1.12,5.07,1.12,3.69-.37,5.08-1.12c1.39-.75,2.46-1.82,3.2-3.24.74-1.41,1.11-3.13,1.11-5.16v-19.54c0-2.03-.37-3.75-1.11-5.16Z"/>
    <path class="cls-1" d="m163.45,39.36c.07-.03.14-.06.2-.09,1.39-.69,2.46-1.7,3.2-3.01.74-1.32,1.11-2.91,1.11-4.79v-4.41c0-1.82-.37-3.37-1.11-4.65s-1.8-2.26-3.2-2.92c-1.39-.67-3.09-1-5.08-1h-9.04v6.97h3.74v-3.49h5.56c1.7,0,3.02.49,3.96,1.47s1.42,2.36,1.42,4.14v3.9c0,1.7-.47,3.02-1.42,3.95-.95.94-2.27,1.4-3.96,1.4h-5.56v-8.65h-3.74v28.12h3.74v-15.98h5.3c.49,0,.96-.02,1.42-.06l4.69,16.04h4.34l-5.56-16.93Z"/>
    <rect class="cls-1" x="182.47" y="28.18" width="3.74" height="28.12"/>
    <polygon class="cls-1" points="193.51 18.51 193.51 21.99 186.21 21.99 186.21 25.46 182.47 25.46 182.47 21.99 175.17 21.99 175.17 18.51 193.51 18.51"/>
    <rect class="cls-1" x="213.52" y="18.51" width="3.74" height="6.95"/>
    <path class="cls-1" d="m213.52,28.18h3.74v19.65c0,2.96-.72,5.18-2.14,6.65-1.43,1.47-3.59,2.21-6.49,2.21s-5.02-.74-6.44-2.21c-1.42-1.47-2.13-3.69-2.13-6.65v-29.31h3.74v29.5c0,1.68.4,2.94,1.21,3.77.8.83,2.02,1.24,3.63,1.24s2.87-.41,3.68-1.24c.8-.83,1.21-2.09,1.21-3.77v-19.83Z"/>
    <rect class="cls-1" x="225.88" y="28.18" width="3.69" height="28.09"/>
    <polygon class="cls-1" points="244.44 18.51 244.44 56.27 240.88 56.27 230.18 28.44 229.58 26.87 229.56 26.82 229.56 25.46 225.88 25.46 225.88 18.51 229.39 18.51 240.75 47.92 240.75 18.51 244.44 18.51"/>
    <rect class="cls-1" x="254.39" y="18.51" width="3.74" height="37.79"/>
    <rect class="cls-1" x="274.86" y="28.18" width="3.74" height="28.12"/>
    <polygon class="cls-1" points="285.91 18.51 285.91 21.99 278.6 21.99 278.6 25.46 274.86 25.46 274.86 21.99 267.56 21.99 267.56 18.51 285.91 18.51"/>
  </g>
</svg>