<?xml version="1.0" encoding="UTF-8"?>
<svg id="Layer_2" data-name="Layer 2" xmlns="http://www.w3.org/2000/svg" viewBox="0 0 391.91 418.03">
  <defs>
    <style>
      .cls-1 {
        stroke-dasharray: 0 0 6.96 6.96;
      }

      .cls-1, .cls-2, .cls-3, .cls-4 {
        fill: none;
        stroke: #1e1e1e;
        stroke-miterlimit: 10;
        stroke-width: 2px;
      }

      .cls-2 {
        stroke-dasharray: 0 0 6.88 6.88;
      }

      .cls-4 {
        stroke-dasharray: 0 0 6.96 6.96;
      }

      .cls-5 {
        fill: #1e1e1e;
      }
    </style>
  </defs>
  <g id="Layer_1-2" data-name="Layer 1">
    <g>
      <g>
        <path class="cls-3" d="m190.95,280.79c-1.17-.06-2.33-.13-3.49-.23"/>
        <path class="cls-4" d="m180.54,279.77c-35.06-5.2-66.69-27.91-81.7-62.86-23.04-53.64,1.76-115.8,55.4-138.84,53.64-23.04,115.8,1.76,138.84,55.4,23.04,53.64-1.76,115.8-55.4,138.84-9.84,4.23-19.97,6.84-30.09,7.97"/>
        <path class="cls-3" d="m204.11,280.6c-1.16.09-2.33.16-3.49.21"/>
      </g>
      <g>
        <path class="cls-3" d="m189.12,235.5c-1.17-.13-2.32-.3-3.47-.49"/>
        <path class="cls-1" d="m178.88,233.44c-25.18-7.39-43.62-30.71-43.62-58.25,0-20.33,10.04-38.35,25.43-49.37"/>
        <path class="cls-3" d="m163.58,123.87c.98-.62,1.99-1.22,3.01-1.79"/>
      </g>
      <g>
        <path class="cls-3" d="m226.11,122.52c1.01.58,2.01,1.19,2.98,1.83"/>
        <path class="cls-2" d="m234.63,128.44c13.45,11.14,22.03,27.96,22.03,46.75,0,28.52-19.77,52.51-46.33,58.98"/>
        <path class="cls-3" d="m206.95,234.89c-1.14.21-2.3.39-3.46.53"/>
      </g>
      <g>
        <polygon class="cls-5" points="199.25 23.76 199.25 35.65 193.48 23.76 189.73 23.76 189.73 39.99 192.66 39.99 192.66 28.28 198.41 39.99 202.18 39.99 202.18 23.76 199.25 23.76"/>
        <path class="cls-5" d="m208.55,217.64c-1.08.45-2.26.7-3.5.7-5.02,0-10.94-4.1-10.94-9.12v-3.06c-.73,0,.38.02-.34-.02-5.2-.28-10.24-1.56-14.89-3.76v9.66c-.09,5.46,6.33,14.16,10.45,20.01,5.27,7.49,3.7,50.57,3.7,50.57h0c0,1.61,1.31,2.93,2.93,2.93s2.93-1.31,2.93-2.93c0,0,0-.01,0-.02-.04-1.03-1.5-43.15,3.7-50.55,2.46-3.5,5.76-8.02,7.98-12.25.69-1.31-.65-2.71-2.01-2.15Z"/>
        <path class="cls-5" d="m216.71,88.54v90.67c0,6.89-3.88,12.88-9.57,15.89-3.39,1.32-7.06,2.05-10.9,2.09h-.57c-3.84-.04-7.51-.77-10.9-2.09-5.69-3.01-9.57-9-9.57-15.89v-90.67l-15.24,15.82v61.84c0,12.15,6.02,22.9,15.24,29.41,5.86,4.14,13.02,6.58,20.75,6.58h0s.01,0,.01,0h0c7.73,0,14.89-2.44,20.75-6.58,9.22-6.51,15.24-17.26,15.24-29.41v-61.84l-15.24-15.82Z"/>
        <g>
          <path class="cls-5" d="m35.49,347.16c-1.23-2.42-3-4.27-5.31-5.55-2.31-1.28-5.12-1.92-8.42-1.92H0v14.26h7.68v-7.11h14.45c2.42,0,4.28.79,5.57,2.37,1.3,1.58,1.95,3.85,1.95,6.8v15.09c0,2.81-.66,5-1.97,6.56-1.32,1.57-3.17,2.35-5.55,2.35H7.68v-20.48H0v57.7h7.68v-30.07h14.08c3.27,0,6.07-.63,8.4-1.87,2.32-1.24,4.1-3.06,5.33-5.44,1.23-2.38,1.84-5.26,1.84-8.64v-15.2c0-3.48-.61-6.43-1.84-8.85Z"/>
          <path class="cls-5" d="m91.53,347.82c-1.51-2.89-3.7-5.11-6.56-6.64-2.86-1.52-6.34-2.29-10.43-2.29s-7.52.77-10.4,2.29c-2.88,1.53-5.07,3.75-6.58,6.64-.94,1.8-1.59,3.84-1.94,6.13h7.86c.48-1.8,1.32-3.29,2.53-4.5,2.03-2.03,4.87-3.04,8.53-3.04s6.55,1.01,8.56,3.04c2.01,2.03,3.02,4.89,3.02,8.59v40.85c0,3.66-1.01,6.51-3.02,8.56-2.01,2.04-4.86,3.06-8.56,3.06s-6.5-1.02-8.53-3.06c-2.03-2.05-3.04-4.9-3.04-8.56v-39.36h-7.68v38.98c0,4.16.76,7.69,2.27,10.59,1.51,2.9,3.7,5.11,6.58,6.64,2.88,1.53,6.35,2.29,10.4,2.29s7.57-.76,10.43-2.29c2.86-1.53,5.05-3.74,6.56-6.64,1.51-2.9,2.27-6.43,2.27-10.59v-40.1c0-4.16-.76-7.69-2.27-10.59Z"/>
          <path class="cls-5" d="m140.6,382.49c.14-.07.28-.12.41-.19,2.86-1.42,5.05-3.48,6.56-6.18,1.51-2.71,2.27-5.98,2.27-9.82v-9.06c0-3.74-.76-6.92-2.27-9.55-1.51-2.63-3.7-4.63-6.56-6-2.86-1.37-6.34-2.05-10.43-2.05h-18.55v14.31h7.67v-7.17h11.42c3.48,0,6.19,1.01,8.13,3.02,1.94,2.01,2.91,4.84,2.91,8.5v8c0,3.49-.97,6.19-2.91,8.11-1.94,1.92-4.65,2.88-8.13,2.88h-11.42v-17.76h-7.67v57.7h7.67v-32.79h10.88c1.01,0,1.98-.05,2.91-.13l9.63,32.92h8.9l-11.42-34.74Z"/>
          <rect class="cls-5" x="179.64" y="359.53" width="7.68" height="57.7"/>
          <polygon class="cls-5" points="202.3 339.69 202.3 346.84 187.32 346.84 187.32 353.95 179.64 353.95 179.64 346.84 164.65 346.84 164.65 339.69 202.3 339.69"/>
          <rect class="cls-5" x="243.36" y="339.69" width="7.68" height="14.26"/>
          <path class="cls-5" d="m243.36,359.53h7.68v40.32c0,6.08-1.47,10.63-4.4,13.65-2.94,3.02-7.37,4.53-13.31,4.53s-10.31-1.51-13.22-4.53c-2.92-3.02-4.38-7.57-4.38-13.65v-60.16h7.68v60.53c0,3.45.83,6.03,2.48,7.74,1.65,1.7,4.14,2.55,7.44,2.55s5.89-.85,7.55-2.55c1.65-1.71,2.48-4.29,2.48-7.74v-40.69Z"/>
          <rect class="cls-5" x="268.73" y="359.53" width="7.58" height="57.65"/>
          <polygon class="cls-5" points="306.81 339.69 306.81 417.18 299.51 417.18 277.55 360.07 276.31 356.85 276.27 356.74 276.27 353.95 268.73 353.95 268.73 339.69 275.93 339.69 299.24 400.05 299.24 339.69 306.81 339.69"/>
          <rect class="cls-5" x="327.23" y="339.69" width="7.68" height="77.54"/>
          <rect class="cls-5" x="369.24" y="359.53" width="7.68" height="57.7"/>
          <polygon class="cls-5" points="391.91 339.69 391.91 346.84 376.92 346.84 376.92 353.95 369.24 353.95 369.24 346.84 354.25 346.84 354.25 339.69 391.91 339.69"/>
        </g>
        <path class="cls-5" d="m71.19,178.5l2.71-9.47h2.15l2.71,9.47,1.83-9.47h2.75l-3.27,14.2h-2.52l-2.52-9.92-2.64,9.92h-2.52l-3.27-14.2h2.75l1.83,9.47Z"/>
        <path class="cls-5" d="m195.92,307.28c-.77,0-1.53-.08-2.27-.23-.74-.16-1.44-.39-2.08-.69-.65-.3-1.23-.66-1.75-1.09l1.42-2.52c.62.51,1.35.91,2.17,1.19.82.28,1.66.42,2.52.42,1,0,1.77-.17,2.32-.51s.83-.82.83-1.44h0c0-.48-.14-.84-.41-1.09-.28-.25-.64-.43-1.09-.55s-.94-.22-1.47-.3c-.63-.1-1.27-.22-1.92-.36-.65-.15-1.24-.38-1.79-.69-.54-.32-.98-.77-1.31-1.36-.33-.59-.5-1.37-.5-2.36h0c0-1.6.52-2.82,1.56-3.69,1.04-.87,2.52-1.3,4.42-1.3.88,0,1.77.15,2.68.44s1.75.71,2.54,1.26l-1.29,2.59c-.63-.44-1.28-.78-1.96-1.01-.68-.23-1.33-.35-1.96-.35-.94,0-1.66.16-2.18.46s-.77.74-.77,1.3h0c0,.53.15.93.46,1.2.3.27.7.47,1.19.6.49.13,1.02.25,1.59.36.63.12,1.25.27,1.87.44.62.17,1.18.43,1.7.75.51.33.92.78,1.23,1.35.3.57.46,1.32.46,2.23v.02c0,1.56-.54,2.78-1.62,3.63-1.08.86-2.6,1.29-4.57,1.29Z"/>
        <polygon class="cls-5" points="320.89 171.6 320.89 169.02 311.38 169.02 311.38 183.22 320.89 183.22 320.89 180.64 314.06 180.64 314.06 177.46 319.82 177.46 319.82 174.88 314.06 174.88 314.06 171.6 320.89 171.6"/>
        <path class="cls-5" d="m205.64,296l-.08-1c28.16-2.26,54.75-14.44,74.85-34.29,20.1-19.85,32.61-46.28,35.23-74.41l1,.09c-2.63,28.37-15.25,55.02-35.52,75.03-20.27,20.02-47.08,32.3-75.47,34.57Z"/>
        <path class="cls-5" d="m315.77,165.58c-2.26-28.17-14.44-54.75-34.29-74.85-19.85-20.1-46.28-32.61-74.41-35.23l.09-1c28.37,2.63,55.01,15.25,75.03,35.52,20.02,20.27,32.3,47.07,34.57,75.47l-1,.08Z"/>
        <path class="cls-5" d="m76.27,164.08l-1-.09c2.63-28.37,15.25-55.02,35.52-75.03,20.27-20.02,47.08-32.3,75.47-34.57l.08,1c-28.17,2.26-54.75,14.44-74.85,34.29-20.1,19.85-32.61,46.28-35.23,74.41Z"/>
        <path class="cls-5" d="m184.75,295.87c-28.37-2.63-55.02-15.25-75.03-35.52-20.02-20.27-32.3-47.08-34.57-75.47l1-.08c2.26,28.16,14.44,54.75,34.29,74.85,19.85,20.1,46.28,32.61,74.42,35.23l-.09,1Z"/>
        <path class="cls-5" d="m43.55,175.99l15.71,2.26v-6.13l-15.71,2.26c-.93.13-.93,1.47,0,1.6Z"/>
        <path class="cls-5" d="m343.96,174.39l-15.71-2.26v6.13l15.71-2.26c.93-.13.93-1.47,0-1.6Z"/>
        <path class="cls-5" d="m282.26,174.39l15.71-2.26v6.13s-15.71-2.26-15.71-2.26c-.93-.13-.93-1.47,0-1.6Z"/>
        <path class="cls-5" d="m111.31,174.39l-15.71-2.26v6.13l15.71-2.26c.93-.13.93-1.47,0-1.6Z"/>
        <path class="cls-5" d="m195.15.69l-2.26,15.71h6.13s-2.26-15.71-2.26-15.71c-.13-.93-1.47-.93-1.6,0Z"/>
        <path class="cls-5" d="m196.76,330.34l2.26-15.71h-6.13l2.26,15.71c.13.93,1.47.93,1.6,0Z"/>
        <path class="cls-5" d="m212.95,80.23c.05.06.09.14.09.23v81.14c0,8.17-6.58,20.88-14.73,21.04h0s-.15.01-.15.01h-.36v-101.53c0-1.02-.83-1.84-1.84-1.84h-.01c-1.01,0-1.84.82-1.84,1.84v111.99c-8.41,0-15.23-6.82-15.23-15.24v-97.78c-.1-5.46,1.49-9.35,6.65-14.3,6.12-5.86,7.49-17.36,7.49-17.36h.04c-.01-.1-.03-.19-.03-.28,0-1.62,1.31-2.93,2.93-2.93s2.93,1.31,2.93,2.93c0,.09-.02.18-.03.27h.03s1.37,11.51,7.49,17.37c5.16,4.95,6.75,8.84,6.66,14.3l-.09.14Z"/>
      </g>
    </g>
  </g>
</svg>